<svg version="1.1" xmlns="http://www.w3.org/2000/svg" xmlns:xlink="http://www.w3.org/1999/xlink" width="551" height="386" viewBox="0,0,551,386"><g transform="translate(45.39999,5.60001)"><g data-paper-data="{&quot;isPaintingLayer&quot;:true}" fill-rule="nonzero" stroke="none" stroke-linecap="butt" stroke-linejoin="miter" stroke-miterlimit="10" stroke-dasharray="" stroke-dashoffset="0" style="mix-blend-mode: normal"><path d="M-1.39999,374.39999v-375h482v375z" fill="#42b6ff" stroke-width="0"/><text transform="translate(123.60001,65.39999) scale(0.5,0.5)" font-size="40" xml:space="preserve" fill="#ff4295" fill-rule="nonzero" stroke="none" stroke-width="1" stroke-linecap="butt" stroke-linejoin="miter" stroke-miterlimit="10" stroke-dasharray="" stroke-dashoffset="0" font-family="Pixel" font-weight="normal" text-anchor="start" style="mix-blend-mode: normal"><tspan x="0" dy="0">S E J A   B E M - V I N D O </tspan><tspan x="0" dy="46.150000000000006px">                    A O</tspan><tspan x="0" dy="46.150000000000006px">    C A T C H   F R U I T S</tspan></text><path d="M70.60001,29.89999c0,19.05382 -20.81876,34.5 -46.5,34.5c-25.68124,0 -46.5,-15.44618 -46.5,-34.5c0,-19.05382 20.81876,-34.5 46.5,-34.5c25.68124,0 46.5,15.44618 46.5,34.5z" fill="#279666" stroke-width="0"/><path d="M52.60001,84.89999c0,17.39697 -16.11775,31.5 -36,31.5c-19.88225,0 -36,-14.10303 -36,-31.5c0,-17.39697 16.11775,-31.5 36,-31.5c19.88225,0 36,14.10303 36,31.5z" fill="#279666" stroke-width="0"/><path d="M85.60001,60.39999c0,18.2254 -11.41674,33 -25.5,33c-14.08326,0 -25.5,-14.7746 -25.5,-33c0,-18.2254 11.41674,-33 25.5,-33c14.08326,0 25.5,14.7746 25.5,33z" fill="#279666" stroke-width="0"/><path d="M65.60001,144.39999c0,20.43454 -17.23704,37 -38.5,37c-21.26296,0 -38.5,-16.56546 -38.5,-37c0,-20.43454 17.23704,-37 38.5,-37c21.26296,0 38.5,16.56546 38.5,37z" fill="#279666" stroke-width="0"/><path d="M16.60001,116.39999c0,10.49341 -4.47715,19 -10,19c-5.52285,0 -10,-8.50659 -10,-19c0,-10.49341 4.47715,-19 10,-19c5.52285,0 10,8.50659 10,19z" fill="#279666" stroke-width="0"/><path d="M44.60001,200.39999c0,17.67311 -14.10303,32 -31.5,32c-17.39697,0 -31.5,-14.32689 -31.5,-32c0,-17.67311 14.10303,-32 31.5,-32c17.39697,0 31.5,14.32689 31.5,32z" fill="#279666" stroke-width="0"/><path d="M73.60001,178.39999c0,18.2254 -8.05887,33 -18,33c-9.94113,0 -18,-14.7746 -18,-33c0,-18.2254 8.05887,-33 18,-33c9.94113,0 18,14.7746 18,33z" fill="#279666" stroke-width="0"/><path d="M59.60001,261.39999c0,22.64367 -15.89389,41 -35.5,41c-19.60611,0 -35.5,-18.35633 -35.5,-41c0,-22.64367 15.89389,-41 35.5,-41c19.60611,0 35.5,18.35633 35.5,41z" fill="#279666" stroke-width="0"/><path d="M113.60001,334.39999c0,24.85281 -25.74363,45 -57.5,45c-31.75637,0 -57.5,-20.14719 -57.5,-45c0,-24.85281 25.74363,-45 57.5,-45c31.75637,0 57.5,20.14719 57.5,45z" fill="#279666" stroke-width="0"/><path d="M35.60001,330.39999c0,27.61424 -18.13247,50 -40.5,50c-22.36753,0 -40.5,-22.38576 -40.5,-50c0,-27.61424 18.13247,-50 40.5,-50c22.36753,0 40.5,22.38576 40.5,50z" fill="#279666" stroke-width="0"/><path d="M505.60001,31.39999c0,16.56854 -13.43146,30 -30,30c-16.56854,0 -30,-13.43146 -30,-30c0,-16.56854 13.43146,-30 30,-30c16.56854,0 30,13.43146 30,30z" fill="#ffffff" stroke-width="0"/><path d="M465.60001,43.89999c0,12.42641 -11.19288,22.5 -25,22.5c-13.80712,0 -25,-10.07359 -25,-22.5c0,-12.42641 11.19288,-22.5 25,-22.5c13.80712,0 25,10.07359 25,22.5z" fill="#ffffff" stroke-width="0"/><path d="M452.60001,19.39999c0,9.94113 -9.17816,18 -20.5,18c-11.32184,0 -20.5,-8.05887 -20.5,-18c0,-9.94113 9.17816,-18 20.5,-18c11.32184,0 20.5,8.05887 20.5,18z" fill="#ffffff" stroke-width="0"/><path d="M242.60001,11.73823c0,8.64975 -15.89389,15.66176 -35.5,15.66176c-19.60611,0 -35.5,-7.01201 -35.5,-15.66176c0,-8.64975 15.89389,-15.66176 35.5,-15.66176c19.60611,0 35.5,7.01201 35.5,15.66176z" fill="#ffffff" stroke-width="0"/><path d="M278.60001,19.89999c0,9.66498 -11.6406,17.5 -26,17.5c-14.3594,0 -26,-7.83502 -26,-17.5c0,-9.66498 11.6406,-17.5 26,-17.5c14.3594,0 26,7.83502 26,17.5z" fill="#ffffff" stroke-width="0"/><path d="M221.60001,2.39999c0,-4.41828 16.11775,-8 36,-8c19.88225,0 36,3.58172 36,8c0,4.41828 -16.11775,8 -36,8c-19.88225,0 -36,-3.58172 -36,-8z" fill="#ffffff" stroke-width="0"/><path d="M394.60001,13.39999c0,8.28427 -14.10303,15 -31.5,15c-17.39697,0 -31.5,-6.71573 -31.5,-15c0,-8.28427 14.10303,-15 31.5,-15c17.39697,0 31.5,6.71573 31.5,15z" fill="#ffffff" stroke-width="0"/><path d="M357.60001,10.89999c0,8.00813 -10.29745,14.5 -23,14.5c-12.70255,0 -23,-6.49187 -23,-14.5c0,-8.00813 10.29745,-14.5 23,-14.5c12.70255,0 23,6.49187 23,14.5z" fill="#ffffff" stroke-width="0"/><path d="M135.60001,194.39999v-55h215v55z" fill="#ffc87b" stroke-width="0"/><text transform="translate(170.60001,156.39999) scale(0.5,0.35554)" font-size="40" xml:space="preserve" fill="#ffffff" fill-rule="nonzero" stroke="none" stroke-width="1" stroke-linecap="butt" stroke-linejoin="miter" stroke-miterlimit="10" stroke-dasharray="" stroke-dashoffset="0" font-family="Pixel" font-weight="normal" text-anchor="start" style="mix-blend-mode: normal"><tspan x="0" dy="0">E S C O L H A </tspan><tspan x="0" dy="46.150000000000006px"> </tspan><tspan x="0" dy="46.150000000000006px">U M A  O P Ç Ã O</tspan></text></g></g></svg>