<svg version="1.1" xmlns="http://www.w3.org/2000/svg" xmlns:xlink="http://www.w3.org/1999/xlink" width="617.5" height="377.3627" viewBox="0,0,617.5,377.3627"><g transform="translate(80.89998,8.60001)"><g data-paper-data="{&quot;isPaintingLayer&quot;:true}" fill-rule="nonzero" stroke-linejoin="miter" stroke-miterlimit="10" stroke-dasharray="" stroke-dashoffset="0" style="mix-blend-mode: normal"><path d="M-80.89997,41.39999c0,-1.38071 1.11929,-2.5 2.5,-2.5c1.38071,0 2.5,1.11929 2.5,2.5c0,1.38071 -1.11929,2.5 -2.5,2.5c-1.38071,0 -2.5,-1.11929 -2.5,-2.5z" fill="#297321" stroke="none" stroke-width="0.5" stroke-linecap="butt"/><path d="M117.60003,6.40002c0,6.07513 -14.7746,11 -33,11c-18.2254,0 -33,-4.92487 -33,-11c0,-6.07513 14.7746,-11 33,-11c18.2254,0 33,4.92487 33,11z" fill="#297321" stroke="#297321" stroke-width="2" stroke-linecap="butt"/><path d="M34.60003,7.40002c0,6.62742 -11.19288,12 -25,12c-13.80712,0 -25,-5.37258 -25,-12c0,-6.62742 11.19288,-12 25,-12c13.80712,0 25,5.37258 25,12z" fill="#297321" stroke="#297321" stroke-width="2" stroke-linecap="butt"/><path d="M181.60003,9.90002c0,6.35127 -11.6406,11.5 -26,11.5c-14.3594,0 -26,-5.14873 -26,-11.5c0,-6.35127 11.6406,-11.5 26,-11.5c14.3594,0 26,5.14873 26,11.5z" fill="#297321" stroke="#297321" stroke-width="2" stroke-linecap="butt"/><path d="M201.60003,-0.09998c0,-3.58985 3.80558,-6.5 8.5,-6.5c4.69442,0 8.5,2.91015 8.5,6.5c0,3.58985 -3.80558,6.5 -8.5,6.5c-4.69442,0 -8.5,-2.91015 -8.5,-6.5z" fill="#297321" stroke="#297321" stroke-width="2" stroke-linecap="butt"/><path d="M311.60003,27.9c0,19.60611 -19.47561,35.5 -43.5,35.5c-24.02439,0 -43.5,-15.89389 -43.5,-35.5c0,-19.60611 19.47561,-35.5 43.5,-35.5c24.02439,0 43.5,15.89389 43.5,35.5z" fill="#297321" stroke="#297321" stroke-width="2" stroke-linecap="butt"/><path d="M261.60003,8.40002c0,7.1797 -12.75988,13 -28.5,13c-15.74012,0 -28.5,-5.8203 -28.5,-13c0,-7.1797 12.75988,-13 28.5,-13c15.74012,0 28.5,5.8203 28.5,13z" fill="#297321" stroke="#297321" stroke-width="2" stroke-linecap="butt"/><path d="M449.60003,9.40002c0,6.62742 -29.54921,12 -66,12c-36.45079,0 -66,-5.37258 -66,-12c0,-6.62742 29.54921,-12 66,-12c36.45079,0 66,5.37258 66,12z" fill="#297321" stroke="#297321" stroke-width="2" stroke-linecap="butt"/><path d="M329.60003,5.40002c-14.3594,0 -26,-2.68629 -26,-6c0,-3.31371 11.6406,-6 26,-6c14.3594,0 26,2.68629 26,6c0,3.31371 -11.6406,6 -26,6z" fill="#297321" stroke="#297321" stroke-width="2" stroke-linecap="butt"/><path d="M441.10003,4.39999c-8.56041,0 -15.5,-2.46243 -15.5,-5.5c0,-3.03757 6.93959,-5.5 15.5,-5.5c8.56041,0 15.5,2.46243 15.5,5.5c0,3.03757 -6.93959,5.5 -15.5,5.5z" fill="#297321" stroke="#297321" stroke-width="2" stroke-linecap="butt"/><path d="M425.60003,44.90002c0,6.35128 -10.96902,11.5 -24.5,11.5c-13.53098,0 -24.5,-5.14872 -24.5,-11.5c0,-6.35128 10.96902,-11.5 24.5,-11.5c13.53098,0 24.5,5.14872 24.5,11.5z" fill="#297321" stroke="#297321" stroke-width="2" stroke-linecap="butt"/><path d="M86.60002,350.40002l-6,-10" fill="none" stroke="none" stroke-width="0" stroke-linecap="round"/><path d="M-3.39998,367.40002v-37h484v37z" fill="#00a90e" stroke="#00a90e" stroke-width="2.72535" stroke-linecap="butt"/><path d="M-59.39998,126.40001v0v0z" fill="#00a90e" stroke="#730707" stroke-width="2" stroke-linecap="butt"/><path d="M-10.54222,332.50302v-248.90216c0,0 -16.80285,-44.66355 3.33214,-52.27876c33.00333,-12.48211 115.40253,9.58006 164.47898,9.58006c52.39169,0 187.23647,-4.99351 267.60704,7.17831c56.17137,8.50694 72.23685,35.52038 72.23685,35.52038v248.90216z" fill="#8fcaf2" stroke="#8fcaf2" stroke-width="2" stroke-linecap="butt"/><path d="M71.10003,-3.59998c17.39697,0 31.5,16.11775 31.5,36c0,19.88225 -14.10303,36 -31.5,36c-17.39697,0 -31.5,-16.11775 -31.5,-36c0,-19.88225 14.10303,-36 31.5,-36z" fill="#297321" stroke="#297321" stroke-width="2" stroke-linecap="butt"/><path d="M153.60002,32.89999c0,20.71068 -15.44618,37.5 -34.5,37.5c-19.05382,0 -34.5,-16.78932 -34.5,-37.5c0,-20.71068 15.44618,-37.5 34.5,-37.5c19.05382,0 34.5,16.78932 34.5,37.5z" fill="#297321" stroke="#297321" stroke-width="2" stroke-linecap="butt"/><path d="M76.60003,26.40002c0,16.56854 -18.13247,30 -40.5,30c-22.36753,0 -40.5,-13.43146 -40.5,-30c0,-16.56854 18.13247,-30 40.5,-30c22.36753,0 40.5,13.43146 40.5,30z" fill="#297321" stroke="#297321" stroke-width="2" stroke-linecap="butt"/><path d="M239.60003,27.90002c0,16.2924 -22.1619,29.5 -49.5,29.5c-27.3381,0 -49.5,-13.2076 -49.5,-29.5c0,-16.2924 22.1619,-29.5 49.5,-29.5c27.3381,0 49.5,13.2076 49.5,29.5z" fill="#297321" stroke="#297321" stroke-width="2" stroke-linecap="butt"/><path d="M257.60003,51.90003c0,10.21727 -14.10303,18.5 -31.5,18.5c-17.39697,0 -31.5,-8.28273 -31.5,-18.5c0,-10.21727 14.10303,-18.5 31.5,-18.5c17.39697,0 31.5,8.28273 31.5,18.5z" fill="#297321" stroke="#297321" stroke-width="2" stroke-linecap="butt"/><path d="M291.10003,-2.59999c23.4721,0 42.5,16.34161 42.5,36.5c0,20.15839 -19.0279,36.5 -42.5,36.5c-23.4721,0 -42.5,-16.34161 -42.5,-36.5c0,-20.15839 19.0279,-36.5 42.5,-36.5z" fill="#297321" stroke="#297321" stroke-width="2" stroke-linecap="butt"/><path d="M437.60003,22.90002c0,11.87412 -25.96748,21.5 -58,21.5c-32.03252,0 -58,-9.62588 -58,-21.5c0,-11.87412 25.96748,-21.5 58,-21.5c32.03252,0 58,9.62588 58,21.5z" fill="#297321" stroke="#297321" stroke-width="2" stroke-linecap="butt"/><path d="M535.60002,36.39999c0,22.64367 -28.20606,41 -63,41c-34.79394,0 -63,-18.35633 -63,-41c0,-22.64367 28.20606,-41 63,-41c34.79394,0 63,18.35633 63,41z" fill="#297321" stroke="#297321" stroke-width="2" stroke-linecap="butt"/><path d="M394.60003,43.90002c0,19.05382 -18.80404,34.5 -42,34.5c-23.19596,0 -42,-15.44618 -42,-34.5c0,-19.05382 18.80404,-34.5 42,-34.5c23.19596,0 42,15.44618 42,34.5z" fill="#297321" stroke="#297321" stroke-width="2" stroke-linecap="butt"/><path d="M79.60001,109.89999c0,12.97869 -13.43146,23.5 -30,23.5c-16.56854,0 -30,-10.52131 -30,-23.5c0,-12.97869 13.43146,-23.5 30,-23.5c16.56854,0 30,10.52131 30,23.5z" fill="#ffffff" stroke="#8fcaf2" stroke-width="2" stroke-linecap="butt"/><path d="M112.60001,127.39999c0,9.94113 -11.41674,18 -25.5,18c-14.08326,0 -25.5,-8.05887 -25.5,-18c0,-9.94113 11.41674,-18 25.5,-18c14.08326,0 25.5,8.05887 25.5,18z" fill="#ffffff" stroke="#ffffff" stroke-width="2" stroke-linecap="butt"/><path d="M124.60001,111.39999c0,9.94113 -13.87917,18 -31,18c-17.12083,0 -31,-8.05887 -31,-18c0,-9.94113 13.87917,-18 31,-18c17.12083,0 31,8.05887 31,18z" fill="#ffffff" stroke="#ffffff" stroke-width="2" stroke-linecap="butt"/><path d="M430.60001,114.39999c0,13.80712 11.19288,25 25,25c13.80712,0 25,-11.19288 25,-25c0,-13.80712 -11.19288,-25 -25,-25c-13.80712,0 -25,11.19288 -25,25z" fill="#ffffff" stroke="#8fcaf2" stroke-width="2" stroke-linecap="butt"/><path d="M453.60001,128.39999c0,12.70255 -12.53603,23 -28,23c-15.46397,0 -28,-10.29745 -28,-23c0,-12.70255 12.53603,-23 28,-23c15.46397,0 28,10.29745 28,23z" fill="#ffffff" stroke="#ffffff" stroke-width="2" stroke-linecap="butt"/><path d="M436.60001,115.39999c0,9.94113 -10.29745,18 -23,18c-12.70255,0 -23,-8.05887 -23,-18c0,-9.94113 10.29745,-18 23,-18c12.70255,0 23,8.05887 23,18z" fill="#ffffff" stroke="#ffffff" stroke-width="2" stroke-linecap="butt"/><path d="M449.60001,102.39999c0,8.28427 -7.3873,15 -16.5,15c-9.1127,0 -16.5,-6.71573 -16.5,-15c0,-8.28427 7.3873,-15 16.5,-15c9.1127,0 16.5,6.71573 16.5,15z" fill="#ffffff" stroke="#ffffff" stroke-width="2" stroke-linecap="butt"/><path d="M232.60001,101.39999c0,14.91169 11.6406,27 26,27c14.3594,0 26,-12.08831 26,-27c0,-14.91169 -11.6406,-27 -26,-27c-14.3594,0 -26,12.08831 -26,27z" fill="#ffffff" stroke="#ffffff" stroke-width="2" stroke-linecap="butt"/><path d="M310.60001,107.89999c0,13.53098 -9.84974,24.5 -22,24.5c-12.15026,0 -22,-10.96902 -22,-24.5c0,-13.53098 9.84974,-24.5 22,-24.5c12.15026,0 22,10.96902 22,24.5z" fill="#ffffff" stroke="#ffffff" stroke-width="2" stroke-linecap="butt"/><path d="M257.60001,103.39999c0,13.80712 -11.86445,25 -26.5,25c-14.63555,0 -26.5,-11.19288 -26.5,-25c0,-13.80712 11.86445,-25 26.5,-25c14.63555,0 26.5,11.19288 26.5,25z" fill="#ffffff" stroke="#ffffff" stroke-width="2" stroke-linecap="butt"/></g></g></svg>